{
  "accessors": [
    {
      "bufferView": 2,
      "componentType": 5126,
      "count": 4845,
      "max": [
        1.0769603252410889,
        1.0463129281997681,
        3.0777974128723145
      ],
      "min": [
        -1.09367835521698,
        -1.1248716115951538,
        0.4439048171043396
      ],
      "type": "VEC3"
    },
    {
      "bufferView": 2,
      "byteOffset": 58140,
      "componentType": 5126,
      "count": 4845,
      "max": [
        0.99999940395355225,
        0.96615123748779297,
        0.99909526109695435
      ],
      "min": [
        -0.99999940395355225,
        -0.99708414077758789,
        -0.99989348649978638
      ],
      "type": "VEC3"
    },
    {
      "bufferView": 1,
      "componentType": 5126,
      "count": 4845,
      "max": [
        0.93635553121566772,
        0.95575577020645142
      ],
      "min": [
        0.0033010272309184074,
        0.0032022504601627588
      ],
      "type": "VEC2"
    },
    {
      "bufferView": 0,
      "componentType": 5125,
      "count": 5655,
      "max": [
        4844
      ],
      "min": [
        0
      ],
      "type": "SCALAR"
    },
    {
      "bufferView": 2,
      "byteOffset": 116280,
      "componentType": 5126,
      "count": 175,
      "max": [
        0.066408365964889526,
        0.063158109784126282,
        2.9937741756439209
      ],
      "min": [
        -0.13034173846244812,
        -0.079559765756130219,
        0
      ],
      "type": "VEC3"
    },
    {
      "bufferView": 2,
      "byteOffset": 118380,
      "componentType": 5126,
      "count": 175,
      "max": [
        1,
        0.95366781949996948,
        0.70555102825164795
      ],
      "min": [
        -1,
        -0.95396095514297485,
        -0.062381558120250702
      ],
      "type": "VEC3"
    },
    {
      "bufferView": 3,
      "componentType": 5126,
      "count": 175,
      "max": [
        0.96357119083404541,
        1,
        0.80078220367431641,
        1
      ],
      "min": [
        -0.97241741418838501,
        -1,
        -0.70823818445205688,
        1
      ],
      "type": "VEC4"
    },
    {
      "bufferView": 1,
      "byteOffset": 38760,
      "componentType": 5126,
      "count": 175,
      "max": [
        0.15434563159942627,
        0.99743694067001343
      ],
      "min": [
        0.0025567731354385614,
        0.002557187806814909
      ],
      "type": "VEC2"
    },
    {
      "bufferView": 0,
      "byteOffset": 22620,
      "componentType": 5125,
      "count": 864,
      "max": [
        174
      ],
      "min": [
        0
      ],
      "type": "SCALAR"
    }
  ],
  "asset": {
    "extras": {
      "author": "AlexKool (https://sketchfab.com/sheh5262)",
      "license": "CC-BY-4.0 (http://creativecommons.org/licenses/by/4.0/)",
      "source": "https://sketchfab.com/3d-models/pine-tree-e52769d653cd4e52a4acff3041961e65",
      "title": "Pine tree"
    },
    "generator": "Sketchfab-9.52.0",
    "version": "2.0"
  },
  "bufferViews": [
    {
      "buffer": 0,
      "byteLength": 26076,
      "byteOffset": 0,
      "name": "floatBufferViews",
      "target": 34963
    },
    {
      "buffer": 0,
      "byteLength": 40160,
      "byteOffset": 26076,
      "byteStride": 8,
      "name": "floatBufferViews",
      "target": 34962
    },
    {
      "buffer": 0,
      "byteLength": 120480,
      "byteOffset": 66236,
      "byteStride": 12,
      "name": "floatBufferViews",
      "target": 34962
    },
    {
      "buffer": 0,
      "byteLength": 2800,
      "byteOffset": 186716,
      "byteStride": 16,
      "name": "floatBufferViews",
      "target": 34962
    }
  ],
  "buffers": [
    {
      "byteLength": 189516,
      "uri": "scene.bin"
    }
  ],
  "images": [
    {
      "uri": "textures/Leavs_baseColor.png"
    },
    {
      "uri": "textures/Trank_baseColor.png"
    },
    {
      "uri": "textures/Trank_normal.png"
    }
  ],
  "materials": [
    {
      "alphaMode": "BLEND",
      "doubleSided": true,
      "name": "Leavs",
      "pbrMetallicRoughness": {
        "baseColorFactor": [
          1,
          1,
          1,
          1
        ],
        "baseColorTexture": {
          "index": 0,
          "texCoord": 0
        },
        "metallicFactor": 0,
        "roughnessFactor": 0
      }
    },
    {
      "doubleSided": true,
      "name": "Trank",
      "normalTexture": {
        "index": 2,
        "scale": 1,
        "texCoord": 0
      },
      "pbrMetallicRoughness": {
        "baseColorFactor": [
          1,
          1,
          1,
          1
        ],
        "baseColorTexture": {
          "index": 1,
          "texCoord": 0
        },
        "metallicFactor": 0,
        "roughnessFactor": 0.89549550371194575
      }
    }
  ],
  "meshes": [
    {
      "name": "Leaves/001_Leavs_0",
      "primitives": [
        {
          "attributes": {
            "NORMAL": 1,
            "POSITION": 0,
            "TEXCOORD_0": 2
          },
          "indices": 3,
          "material": 0,
          "mode": 4
        }
      ]
    },
    {
      "name": "Trank.001_Trank_0",
      "primitives": [
        {
          "attributes": {
            "NORMAL": 5,
            "POSITION": 4,
            "TANGENT": 6,
            "TEXCOORD_0": 7
          },
          "indices": 8,
          "material": 1,
          "mode": 4
        }
      ]
    }
  ],
  "nodes": [
    {
      "children": [
        1
      ],
      "name": "RootNode (gltf orientation matrix)",
      "rotation": [
        -0.70710678118654746,
        -0,
        -0,
        0.70710678118654757
      ]
    },
    {
      "children": [
        2
      ],
      "name": "RootNode (model correction matrix)"
    },
    {
      "children": [
        3
      ],
      "matrix": [
        1,
        0,
        0,
        0,
        0,
        0,
        1,
        0,
        0,
        -1,
        0,
        0,
        0,
        0,
        0,
        1
      ],
      "name": "4ae49a7eb2b34ec88b7dd664e89d6dd8.fbx"
    },
    {
      "children": [
        4,
        6
      ],
      "name": "RootNode"
    },
    {
      "children": [
        5
      ],
      "matrix": [
        100,
        0,
        0,
        0,
        0,
        -1.6292067939183141e-05,
        -99.999999999998678,
        0,
        0,
        99.999999999998678,
        -1.6292067939183141e-05,
        0,
        0,
        0,
        0,
        1
      ],
      "name": "Leaves/001"
    },
    {
      "mesh": 0,
      "name": "Leaves/001_Leavs_0"
    },
    {
      "children": [
        7
      ],
      "matrix": [
        100,
        0,
        0,
        0,
        0,
        -1.6292067939183141e-05,
        -99.999999999998678,
        0,
        0,
        99.999999999998678,
        -1.6292067939183141e-05,
        0,
        0,
        0,
        0,
        1
      ],
      "name": "Trank.001"
    },
    {
      "mesh": 1,
      "name": "Trank.001_Trank_0"
    }
  ],
  "samplers": [
    {
      "magFilter": 9729,
      "minFilter": 9987,
      "wrapS": 10497,
      "wrapT": 10497
    }
  ],
  "scene": 0,
  "scenes": [
    {
      "name": "OSG_Scene",
      "nodes": [
        0
      ]
    }
  ],
  "textures": [
    {
      "sampler": 0,
      "source": 0
    },
    {
      "sampler": 0,
      "source": 1
    },
    {
      "sampler": 0,
      "source": 2
    }
  ]
}

